<svg xmlns="http://www.w3.org/2000/svg" viewBox="0 0 64 64" width="64" height="64">
  <!-- LaunchOS Pro: a gold badge with a star (drawn for LaunchOS) -->
  <defs>
    <linearGradient id="g" x1="0" y1="0" x2="0" y2="1"><stop offset="0" stop-color="#ffe08a"/><stop offset="1" stop-color="#e0a52e"/></linearGradient>
    <linearGradient id="s" x1="0" y1="0" x2="0" y2="1"><stop offset="0" stop-color="#ffffff"/><stop offset="1" stop-color="#fff3cf"/></linearGradient>
  </defs>
  <path d="M32 3l7.2 6.1 9.4-.8 2.3 9.2 8 5-3.6 8.7 3.6 8.7-8 5-2.3 9.2-9.4-.8L32 61l-7.2-6.1-9.4.8-2.3-9.2-8-5 3.6-8.7-3.6-8.7 8-5 2.3-9.2 9.4.8z" fill="url(#g)"/>
  <circle cx="32" cy="32" r="19" fill="#b8801f" opacity=".25"/>
  <path d="M32 17.5l4.3 8.8 9.7 1.4-7 6.8 1.7 9.6-8.7-4.6-8.7 4.6 1.7-9.6-7-6.8 9.7-1.4z" fill="url(#s)"/>
</svg>
